<mxfile host="app.diagrams.net" modified="2024-05-23T12:42:50.597Z" agent="Mozilla/5.0 (X11; Linux x86_64) AppleWebKit/537.36 (KHTML, like Gecko) Chrome/124.0.0.0 Safari/537.36" etag="TPra5kjKM0BzpoS2tC1X" version="24.4.6" type="github">
  <diagram name="Page-1" id="VI-uStgvsf2DSkjBaI4M">
    <mxGraphModel dx="1830" dy="1190" grid="1" gridSize="10" guides="1" tooltips="1" connect="1" arrows="1" fold="1" page="0" pageScale="1" pageWidth="827" pageHeight="1169" math="0" shadow="0">
      <root>
        <mxCell id="0" />
        <mxCell id="1" parent="0" />
        <mxCell id="6GH4hjvBLDPdE0B9jaWf-1" value="D1" style="shape=cylinder3;whiteSpace=wrap;html=1;boundedLbl=1;backgroundOutline=1;size=15;fillColor=#dae8fc;strokeColor=#6c8ebf;gradientColor=#7ea6e0;" parent="1" vertex="1">
          <mxGeometry x="-110" y="-380" width="60" height="80" as="geometry" />
        </mxCell>
        <mxCell id="6GH4hjvBLDPdE0B9jaWf-2" value="D2" style="shape=cylinder3;whiteSpace=wrap;html=1;boundedLbl=1;backgroundOutline=1;size=15;fillColor=#f8cecc;gradientColor=#ea6b66;strokeColor=#b85450;" parent="1" vertex="1">
          <mxGeometry x="10" y="-380" width="60" height="80" as="geometry" />
        </mxCell>
        <mxCell id="6GH4hjvBLDPdE0B9jaWf-3" value="D3" style="shape=cylinder3;whiteSpace=wrap;html=1;boundedLbl=1;backgroundOutline=1;size=15;fillColor=#d5e8d4;gradientColor=#97d077;strokeColor=#82b366;" parent="1" vertex="1">
          <mxGeometry x="120" y="-380" width="60" height="80" as="geometry" />
        </mxCell>
        <mxCell id="6GH4hjvBLDPdE0B9jaWf-5" value="" style="verticalLabelPosition=middle;verticalAlign=middle;html=1;shape=trapezoid;perimeter=trapezoidPerimeter;whiteSpace=wrap;size=0.23;arcSize=10;flipV=1;labelPosition=center;align=center;fillColor=#f5f5f5;gradientColor=#b3b3b3;strokeColor=#666666;" parent="1" vertex="1">
          <mxGeometry x="-10" y="-200" width="100" height="60" as="geometry" />
        </mxCell>
        <mxCell id="6GH4hjvBLDPdE0B9jaWf-6" value="" style="shape=loopLimit;whiteSpace=wrap;html=1;fillColor=#f5f5f5;gradientColor=#b3b3b3;strokeColor=#666666;" parent="1" vertex="1">
          <mxGeometry x="-10" y="-140" width="100" height="80" as="geometry" />
        </mxCell>
        <mxCell id="6GH4hjvBLDPdE0B9jaWf-7" value="" style="sketch=0;outlineConnect=0;fontColor=#232F3E;gradientColor=none;fillColor=#232F3D;strokeColor=none;dashed=0;verticalLabelPosition=bottom;verticalAlign=top;align=center;html=1;fontSize=12;fontStyle=0;aspect=fixed;pointerEvents=1;shape=mxgraph.aws4.gear;" parent="1" vertex="1">
          <mxGeometry x="6" y="-127" width="42" height="42" as="geometry" />
        </mxCell>
        <mxCell id="6GH4hjvBLDPdE0B9jaWf-8" value="" style="sketch=0;outlineConnect=0;fontColor=#232F3E;gradientColor=none;fillColor=#232F3D;strokeColor=none;dashed=0;verticalLabelPosition=bottom;verticalAlign=top;align=center;html=1;fontSize=12;fontStyle=0;aspect=fixed;pointerEvents=1;shape=mxgraph.aws4.gear;" parent="1" vertex="1">
          <mxGeometry x="34" y="-104" width="48" height="33" as="geometry" />
        </mxCell>
        <mxCell id="6GH4hjvBLDPdE0B9jaWf-10" value="" style="shape=flexArrow;endArrow=classic;html=1;rounded=0;exitX=0.5;exitY=1;exitDx=0;exitDy=0;exitPerimeter=0;entryX=0.25;entryY=0;entryDx=0;entryDy=0;" parent="1" source="6GH4hjvBLDPdE0B9jaWf-1" target="6GH4hjvBLDPdE0B9jaWf-5" edge="1">
          <mxGeometry width="50" height="50" relative="1" as="geometry">
            <mxPoint x="-90" y="-220" as="sourcePoint" />
            <mxPoint x="-40" y="-270" as="targetPoint" />
            <Array as="points">
              <mxPoint x="-60" y="-260" />
            </Array>
          </mxGeometry>
        </mxCell>
        <mxCell id="6GH4hjvBLDPdE0B9jaWf-11" value="" style="shape=flexArrow;endArrow=classic;html=1;rounded=0;exitX=0.5;exitY=1;exitDx=0;exitDy=0;exitPerimeter=0;entryX=0.5;entryY=0;entryDx=0;entryDy=0;" parent="1" source="6GH4hjvBLDPdE0B9jaWf-2" target="6GH4hjvBLDPdE0B9jaWf-5" edge="1">
          <mxGeometry width="50" height="50" relative="1" as="geometry">
            <mxPoint x="33" y="-220" as="sourcePoint" />
            <mxPoint x="83" y="-270" as="targetPoint" />
          </mxGeometry>
        </mxCell>
        <mxCell id="6GH4hjvBLDPdE0B9jaWf-12" value="" style="shape=flexArrow;endArrow=classic;html=1;rounded=0;exitX=0.5;exitY=1;exitDx=0;exitDy=0;exitPerimeter=0;entryX=0.75;entryY=0;entryDx=0;entryDy=0;" parent="1" source="6GH4hjvBLDPdE0B9jaWf-3" target="6GH4hjvBLDPdE0B9jaWf-5" edge="1">
          <mxGeometry width="50" height="50" relative="1" as="geometry">
            <mxPoint x="160" y="-220" as="sourcePoint" />
            <mxPoint x="210" y="-270" as="targetPoint" />
            <Array as="points">
              <mxPoint x="130" y="-260" />
            </Array>
          </mxGeometry>
        </mxCell>
        <mxCell id="6GH4hjvBLDPdE0B9jaWf-14" value="" style="shape=singleArrow;whiteSpace=wrap;html=1;rotation=90;" parent="1" vertex="1">
          <mxGeometry x="20" y="-6" width="40" height="20" as="geometry" />
        </mxCell>
        <mxCell id="6GH4hjvBLDPdE0B9jaWf-15" value="ResNet50" style="verticalLabelPosition=middle;verticalAlign=middle;html=1;shape=trapezoid;perimeter=trapezoidPerimeter;whiteSpace=wrap;size=0.23;arcSize=10;flipV=1;labelPosition=center;align=center;rotation=-90;fillColor=#fff2cc;strokeColor=#d6b656;" parent="1" vertex="1">
          <mxGeometry x="-20" y="112" width="160" height="122" as="geometry" />
        </mxCell>
        <mxCell id="6GH4hjvBLDPdE0B9jaWf-16" value="" style="rounded=0;whiteSpace=wrap;html=1;fillColor=#dae8fc;strokeColor=#6c8ebf;" parent="1" vertex="1">
          <mxGeometry x="150" y="54" width="30" height="234" as="geometry" />
        </mxCell>
        <mxCell id="6GH4hjvBLDPdE0B9jaWf-17" value="" style="rounded=0;whiteSpace=wrap;html=1;fillColor=#dae8fc;strokeColor=#6c8ebf;" parent="1" vertex="1">
          <mxGeometry x="203" y="98" width="30" height="146" as="geometry" />
        </mxCell>
        <mxCell id="6GH4hjvBLDPdE0B9jaWf-18" value="" style="rounded=0;whiteSpace=wrap;html=1;fillColor=#f8cecc;strokeColor=#b85450;" parent="1" vertex="1">
          <mxGeometry x="300" y="174" width="30" height="146" as="geometry" />
        </mxCell>
        <mxCell id="6GH4hjvBLDPdE0B9jaWf-19" value="" style="rounded=0;whiteSpace=wrap;html=1;fillColor=#d5e8d4;strokeColor=#82b366;" parent="1" vertex="1">
          <mxGeometry x="300" y="64" width="30" height="66" as="geometry" />
        </mxCell>
        <mxCell id="0QQ0AyBWD3RIhKyotTqL-1" value="" style="endArrow=classic;html=1;rounded=0;" edge="1" parent="1">
          <mxGeometry width="50" height="50" relative="1" as="geometry">
            <mxPoint x="126" y="174" as="sourcePoint" />
            <mxPoint x="146" y="174" as="targetPoint" />
          </mxGeometry>
        </mxCell>
        <mxCell id="0QQ0AyBWD3RIhKyotTqL-2" value="" style="endArrow=classic;html=1;rounded=0;" edge="1" parent="1">
          <mxGeometry width="50" height="50" relative="1" as="geometry">
            <mxPoint x="190" y="174" as="sourcePoint" />
            <mxPoint x="200" y="174" as="targetPoint" />
          </mxGeometry>
        </mxCell>
        <mxCell id="0QQ0AyBWD3RIhKyotTqL-3" value="" style="endArrow=classic;html=1;rounded=0;" edge="1" parent="1">
          <mxGeometry width="50" height="50" relative="1" as="geometry">
            <mxPoint x="240" y="174" as="sourcePoint" />
            <mxPoint x="290" y="254" as="targetPoint" />
          </mxGeometry>
        </mxCell>
        <mxCell id="0QQ0AyBWD3RIhKyotTqL-4" value="" style="endArrow=classic;html=1;rounded=0;" edge="1" parent="1">
          <mxGeometry width="50" height="50" relative="1" as="geometry">
            <mxPoint x="240" y="174" as="sourcePoint" />
            <mxPoint x="290" y="114" as="targetPoint" />
          </mxGeometry>
        </mxCell>
        <mxCell id="0QQ0AyBWD3RIhKyotTqL-5" value="Backbone Network" style="text;html=1;align=center;verticalAlign=middle;whiteSpace=wrap;rounded=0;" vertex="1" parent="1">
          <mxGeometry y="44" width="120" height="30" as="geometry" />
        </mxCell>
        <mxCell id="0QQ0AyBWD3RIhKyotTqL-6" value="FC" style="text;html=1;align=center;verticalAlign=middle;whiteSpace=wrap;rounded=0;" vertex="1" parent="1">
          <mxGeometry x="135" y="24" width="60" height="30" as="geometry" />
        </mxCell>
        <mxCell id="0QQ0AyBWD3RIhKyotTqL-7" value="FC" style="text;html=1;align=center;verticalAlign=middle;whiteSpace=wrap;rounded=0;" vertex="1" parent="1">
          <mxGeometry x="188" y="74" width="60" height="30" as="geometry" />
        </mxCell>
        <mxCell id="0QQ0AyBWD3RIhKyotTqL-8" value="CLS" style="text;html=1;align=center;verticalAlign=middle;whiteSpace=wrap;rounded=0;" vertex="1" parent="1">
          <mxGeometry x="285" y="34" width="60" height="30" as="geometry" />
        </mxCell>
        <mxCell id="0QQ0AyBWD3RIhKyotTqL-9" value="BBOX" style="text;html=1;align=center;verticalAlign=middle;whiteSpace=wrap;rounded=0;" vertex="1" parent="1">
          <mxGeometry x="285" y="144" width="60" height="30" as="geometry" />
        </mxCell>
        <mxCell id="0QQ0AyBWD3RIhKyotTqL-10" value="Object Detection Fine-Tuning" style="text;html=1;align=center;verticalAlign=middle;whiteSpace=wrap;rounded=0;" vertex="1" parent="1">
          <mxGeometry x="125" y="-16" width="220" height="30" as="geometry" />
        </mxCell>
        <mxCell id="0QQ0AyBWD3RIhKyotTqL-11" value="&lt;font style=&quot;font-size: 13px;&quot;&gt;DINO pre-training&lt;/font&gt;&lt;div style=&quot;font-size: 13px;&quot;&gt;&lt;font style=&quot;font-size: 13px;&quot;&gt;without labels&lt;/font&gt;&lt;/div&gt;" style="text;html=1;align=center;verticalAlign=middle;whiteSpace=wrap;rounded=0;" vertex="1" parent="1">
          <mxGeometry x="-20" y="-65" width="120" height="50" as="geometry" />
        </mxCell>
        <mxCell id="0QQ0AyBWD3RIhKyotTqL-13" value="" style="shape=image;html=1;verticalAlign=top;verticalLabelPosition=bottom;labelBackgroundColor=#ffffff;imageAspect=0;aspect=fixed;image=https://cdn4.iconfinder.com/data/icons/48-bubbles/48/12.File-128.png" vertex="1" parent="1">
          <mxGeometry x="257" y="-233.5" width="72" height="72" as="geometry" />
        </mxCell>
        <mxCell id="0QQ0AyBWD3RIhKyotTqL-16" value="D1 annotations coco.json" style="text;html=1;align=center;verticalAlign=middle;whiteSpace=wrap;rounded=0;" vertex="1" parent="1">
          <mxGeometry x="248" y="-162.5" width="90" height="56" as="geometry" />
        </mxCell>
        <mxCell id="0QQ0AyBWD3RIhKyotTqL-22" value="" style="shape=image;html=1;verticalAlign=top;verticalLabelPosition=bottom;labelBackgroundColor=#ffffff;imageAspect=0;aspect=fixed;image=https://cdn4.iconfinder.com/data/icons/48-bubbles/48/12.File-128.png" vertex="1" parent="1">
          <mxGeometry x="469" y="-231.5" width="72" height="72" as="geometry" />
        </mxCell>
        <mxCell id="0QQ0AyBWD3RIhKyotTqL-23" value="D3 annotations coco.json" style="text;html=1;align=center;verticalAlign=middle;whiteSpace=wrap;rounded=0;" vertex="1" parent="1">
          <mxGeometry x="460" y="-162.5" width="90" height="56" as="geometry" />
        </mxCell>
        <mxCell id="0QQ0AyBWD3RIhKyotTqL-24" value="" style="shape=image;html=1;verticalAlign=top;verticalLabelPosition=bottom;labelBackgroundColor=#ffffff;imageAspect=0;aspect=fixed;image=https://cdn4.iconfinder.com/data/icons/48-bubbles/48/12.File-128.png" vertex="1" parent="1">
          <mxGeometry x="364" y="-233.5" width="72" height="72" as="geometry" />
        </mxCell>
        <mxCell id="0QQ0AyBWD3RIhKyotTqL-25" value="D2 annotations coco.json" style="text;html=1;align=center;verticalAlign=middle;whiteSpace=wrap;rounded=0;" vertex="1" parent="1">
          <mxGeometry x="354" y="-162.5" width="90" height="56" as="geometry" />
        </mxCell>
        <mxCell id="0QQ0AyBWD3RIhKyotTqL-26" value="" style="endArrow=classic;html=1;rounded=0;exitX=0.5;exitY=1;exitDx=0;exitDy=0;" edge="1" parent="1" source="0QQ0AyBWD3RIhKyotTqL-16">
          <mxGeometry width="50" height="50" relative="1" as="geometry">
            <mxPoint x="230" y="-20" as="sourcePoint" />
            <mxPoint x="280" y="-40" as="targetPoint" />
          </mxGeometry>
        </mxCell>
        <mxCell id="0QQ0AyBWD3RIhKyotTqL-27" value="" style="endArrow=classic;html=1;rounded=0;exitX=0.5;exitY=1;exitDx=0;exitDy=0;" edge="1" parent="1" source="0QQ0AyBWD3RIhKyotTqL-25">
          <mxGeometry width="50" height="50" relative="1" as="geometry">
            <mxPoint x="303" y="-96" as="sourcePoint" />
            <mxPoint x="290" y="-30" as="targetPoint" />
          </mxGeometry>
        </mxCell>
        <mxCell id="0QQ0AyBWD3RIhKyotTqL-28" value="" style="endArrow=classic;html=1;rounded=0;exitX=0.5;exitY=1;exitDx=0;exitDy=0;" edge="1" parent="1" source="0QQ0AyBWD3RIhKyotTqL-23">
          <mxGeometry width="50" height="50" relative="1" as="geometry">
            <mxPoint x="407" y="-82" as="sourcePoint" />
            <mxPoint x="300" y="-20" as="targetPoint" />
          </mxGeometry>
        </mxCell>
      </root>
    </mxGraphModel>
  </diagram>
</mxfile>
